<mxfile host="app.diagrams.net" modified="2023-07-05T11:50:29.531Z" agent="Mozilla/5.0 (Macintosh; Intel Mac OS X 10_15_7) AppleWebKit/537.36 (KHTML, like Gecko) Chrome/114.0.0.0 Safari/537.36" version="21.5.2" etag="uZ32ZQKgP37jY0uaKF-5" type="github">
  <diagram name="Page-1" id="ZC3b0wmxKJjaTJfsp6VT">
    <mxGraphModel>
      <root>
        <mxCell id="0" />
        <mxCell id="1" parent="0" />
      </root>
    </mxGraphModel>
  </diagram>
</mxfile>
